<mxfile host="app.diagrams.net" agent="Mozilla/5.0 (Windows NT 10.0; Win64; x64) AppleWebKit/537.36 (KHTML, like Gecko) Chrome/128.0.0.0 Safari/537.36 Edg/128.0.0.0" version="24.7.10">
  <diagram name="Página-1" id="VOa4yXEfSZDNrWrREHKx">
    <mxGraphModel dx="2911" dy="2303" grid="1" gridSize="10" guides="1" tooltips="1" connect="1" arrows="1" fold="1" page="1" pageScale="1" pageWidth="827" pageHeight="1169" math="0" shadow="0">
      <root>
        <mxCell id="0" />
        <mxCell id="1" parent="0" />
        <mxCell id="BAze2DvRuZ6up6udvLau-1" value="&lt;font style=&quot;font-size: 31px;&quot;&gt;Diagrama de Flujo&lt;/font&gt;" style="text;html=1;align=center;verticalAlign=middle;whiteSpace=wrap;rounded=0;" vertex="1" parent="1">
          <mxGeometry x="194" y="-30" width="410" height="70" as="geometry" />
        </mxCell>
        <mxCell id="BAze2DvRuZ6up6udvLau-10" value="Ingresar al Sistema" style="rounded=1;whiteSpace=wrap;html=1;arcSize=40;fontColor=#000000;fillColor=#ffffc0;strokeColor=#ff0000;" vertex="1" parent="1">
          <mxGeometry x="340" y="160" width="120" height="40" as="geometry" />
        </mxCell>
        <mxCell id="BAze2DvRuZ6up6udvLau-11" value="" style="edgeStyle=orthogonalEdgeStyle;html=1;verticalAlign=bottom;endArrow=open;endSize=8;strokeColor=#ff0000;rounded=0;" edge="1" source="BAze2DvRuZ6up6udvLau-10" parent="1">
          <mxGeometry relative="1" as="geometry">
            <mxPoint x="400" y="260" as="targetPoint" />
          </mxGeometry>
        </mxCell>
        <mxCell id="BAze2DvRuZ6up6udvLau-16" value="Validar Datos" style="rhombus;whiteSpace=wrap;html=1;fontColor=#000000;fillColor=#ffffc0;strokeColor=#ff0000;" vertex="1" parent="1">
          <mxGeometry x="360" y="260" width="80" height="60" as="geometry" />
        </mxCell>
        <mxCell id="BAze2DvRuZ6up6udvLau-17" value="no" style="edgeStyle=orthogonalEdgeStyle;html=1;align=left;verticalAlign=bottom;endArrow=open;endSize=8;strokeColor=#ff0000;rounded=0;" edge="1" source="BAze2DvRuZ6up6udvLau-16" parent="1">
          <mxGeometry x="-1" relative="1" as="geometry">
            <mxPoint x="550" y="290" as="targetPoint" />
            <Array as="points">
              <mxPoint x="540" y="290" />
            </Array>
          </mxGeometry>
        </mxCell>
        <mxCell id="BAze2DvRuZ6up6udvLau-18" value="yes" style="edgeStyle=orthogonalEdgeStyle;html=1;align=left;verticalAlign=top;endArrow=open;endSize=8;strokeColor=#ff0000;rounded=0;" edge="1" source="BAze2DvRuZ6up6udvLau-16" parent="1">
          <mxGeometry x="-0.7502" relative="1" as="geometry">
            <mxPoint x="220" y="290" as="targetPoint" />
            <mxPoint as="offset" />
          </mxGeometry>
        </mxCell>
        <mxCell id="BAze2DvRuZ6up6udvLau-19" value="Ventana Emergente" style="rounded=1;whiteSpace=wrap;html=1;arcSize=40;fontColor=#000000;fillColor=#ffffc0;strokeColor=#ff0000;" vertex="1" parent="1">
          <mxGeometry x="550" y="270" width="120" height="40" as="geometry" />
        </mxCell>
        <mxCell id="BAze2DvRuZ6up6udvLau-20" value="" style="edgeStyle=orthogonalEdgeStyle;html=1;verticalAlign=bottom;endArrow=open;endSize=8;strokeColor=#ff0000;rounded=0;" edge="1" source="BAze2DvRuZ6up6udvLau-19" parent="1">
          <mxGeometry relative="1" as="geometry">
            <mxPoint x="610" y="370" as="targetPoint" />
          </mxGeometry>
        </mxCell>
        <mxCell id="BAze2DvRuZ6up6udvLau-21" value="Datos Invalidos" style="rounded=1;whiteSpace=wrap;html=1;arcSize=40;fontColor=#000000;fillColor=#ffffc0;strokeColor=#ff0000;" vertex="1" parent="1">
          <mxGeometry x="550" y="370" width="120" height="40" as="geometry" />
        </mxCell>
        <mxCell id="BAze2DvRuZ6up6udvLau-22" value="" style="edgeStyle=orthogonalEdgeStyle;html=1;verticalAlign=bottom;endArrow=open;endSize=8;strokeColor=#ff0000;rounded=0;" edge="1" source="BAze2DvRuZ6up6udvLau-21" parent="1" target="BAze2DvRuZ6up6udvLau-16">
          <mxGeometry relative="1" as="geometry">
            <mxPoint x="610" y="470" as="targetPoint" />
          </mxGeometry>
        </mxCell>
        <mxCell id="BAze2DvRuZ6up6udvLau-23" value="" style="ellipse;html=1;shape=startState;fillColor=#000000;strokeColor=#ff0000;" vertex="1" parent="1">
          <mxGeometry x="385" y="70" width="30" height="30" as="geometry" />
        </mxCell>
        <mxCell id="BAze2DvRuZ6up6udvLau-24" value="" style="edgeStyle=orthogonalEdgeStyle;html=1;verticalAlign=bottom;endArrow=open;endSize=8;strokeColor=#ff0000;rounded=0;" edge="1" source="BAze2DvRuZ6up6udvLau-23" parent="1">
          <mxGeometry relative="1" as="geometry">
            <mxPoint x="400" y="160" as="targetPoint" />
          </mxGeometry>
        </mxCell>
        <mxCell id="BAze2DvRuZ6up6udvLau-25" value="Ingresar al Dashboard" style="rounded=1;whiteSpace=wrap;html=1;arcSize=40;fontColor=#000000;fillColor=#ffffc0;strokeColor=#ff0000;" vertex="1" parent="1">
          <mxGeometry x="100" y="270" width="120" height="40" as="geometry" />
        </mxCell>
        <mxCell id="BAze2DvRuZ6up6udvLau-26" value="" style="edgeStyle=orthogonalEdgeStyle;html=1;verticalAlign=bottom;endArrow=open;endSize=8;strokeColor=#ff0000;rounded=0;" edge="1" source="BAze2DvRuZ6up6udvLau-25" parent="1">
          <mxGeometry relative="1" as="geometry">
            <mxPoint x="160" y="370" as="targetPoint" />
          </mxGeometry>
        </mxCell>
        <mxCell id="BAze2DvRuZ6up6udvLau-27" value="Seleccionar" style="rounded=1;whiteSpace=wrap;html=1;arcSize=40;fontColor=#000000;fillColor=#ffffc0;strokeColor=#ff0000;" vertex="1" parent="1">
          <mxGeometry x="100" y="370" width="120" height="40" as="geometry" />
        </mxCell>
        <mxCell id="BAze2DvRuZ6up6udvLau-28" value="" style="edgeStyle=orthogonalEdgeStyle;html=1;verticalAlign=bottom;endArrow=open;endSize=8;strokeColor=#ff0000;rounded=0;" edge="1" source="BAze2DvRuZ6up6udvLau-27" parent="1">
          <mxGeometry relative="1" as="geometry">
            <mxPoint x="160" y="470" as="targetPoint" />
          </mxGeometry>
        </mxCell>
        <mxCell id="BAze2DvRuZ6up6udvLau-29" value="Dashboard" style="swimlane;fontStyle=1;align=center;verticalAlign=middle;childLayout=stackLayout;horizontal=1;startSize=30;horizontalStack=0;resizeParent=0;resizeLast=1;container=0;fontColor=#000000;collapsible=0;rounded=1;arcSize=30;strokeColor=#ff0000;fillColor=#ffffc0;swimlaneFillColor=#ffffc0;dropTarget=0;" vertex="1" parent="1">
          <mxGeometry x="80" y="470" width="160" height="110" as="geometry" />
        </mxCell>
        <mxCell id="BAze2DvRuZ6up6udvLau-30" value="- Procedimientos&lt;div&gt;- Divisiones&lt;/div&gt;&lt;div&gt;- Estadísticas&lt;/div&gt;&lt;div&gt;- Salir&lt;/div&gt;" style="text;html=1;strokeColor=none;fillColor=none;align=left;verticalAlign=middle;spacingLeft=4;spacingRight=4;whiteSpace=wrap;overflow=hidden;rotatable=0;fontColor=#000000;" vertex="1" parent="BAze2DvRuZ6up6udvLau-29">
          <mxGeometry y="30" width="160" height="80" as="geometry" />
        </mxCell>
        <mxCell id="BAze2DvRuZ6up6udvLau-33" value="Seleccionar Procedimientos" style="rounded=1;whiteSpace=wrap;html=1;arcSize=40;fontColor=#000000;fillColor=#ffffc0;strokeColor=#ff0000;" vertex="1" parent="1">
          <mxGeometry x="100" y="660" width="120" height="40" as="geometry" />
        </mxCell>
        <mxCell id="BAze2DvRuZ6up6udvLau-34" value="" style="edgeStyle=orthogonalEdgeStyle;html=1;verticalAlign=bottom;endArrow=open;endSize=8;strokeColor=#ff0000;rounded=0;entryX=0.5;entryY=0;entryDx=0;entryDy=0;" edge="1" source="BAze2DvRuZ6up6udvLau-33" parent="1" target="BAze2DvRuZ6up6udvLau-39">
          <mxGeometry relative="1" as="geometry">
            <mxPoint x="295" y="680" as="targetPoint" />
          </mxGeometry>
        </mxCell>
        <mxCell id="BAze2DvRuZ6up6udvLau-37" value="" style="edgeStyle=orthogonalEdgeStyle;html=1;verticalAlign=bottom;endArrow=open;endSize=8;strokeColor=#ff0000;rounded=0;exitX=0.5;exitY=1;exitDx=0;exitDy=0;" edge="1" source="BAze2DvRuZ6up6udvLau-30" parent="1">
          <mxGeometry relative="1" as="geometry">
            <mxPoint x="160" y="660" as="targetPoint" />
          </mxGeometry>
        </mxCell>
        <mxCell id="BAze2DvRuZ6up6udvLau-39" value="Seleccionar la Division" style="rounded=1;whiteSpace=wrap;html=1;arcSize=40;fontColor=#000000;fillColor=#ffffc0;strokeColor=#ff0000;" vertex="1" parent="1">
          <mxGeometry x="100" y="760" width="120" height="40" as="geometry" />
        </mxCell>
        <mxCell id="BAze2DvRuZ6up6udvLau-40" value="" style="edgeStyle=orthogonalEdgeStyle;html=1;verticalAlign=bottom;endArrow=open;endSize=8;strokeColor=#ff0000;rounded=0;entryX=0.5;entryY=0;entryDx=0;entryDy=0;" edge="1" source="BAze2DvRuZ6up6udvLau-39" parent="1" target="BAze2DvRuZ6up6udvLau-41">
          <mxGeometry relative="1" as="geometry">
            <mxPoint x="480" y="680" as="targetPoint" />
          </mxGeometry>
        </mxCell>
        <mxCell id="BAze2DvRuZ6up6udvLau-41" value="Ingresar Datos de la Operacion" style="rounded=1;whiteSpace=wrap;html=1;arcSize=40;fontColor=#000000;fillColor=#ffffc0;strokeColor=#ff0000;" vertex="1" parent="1">
          <mxGeometry x="100" y="850" width="120" height="40" as="geometry" />
        </mxCell>
        <mxCell id="BAze2DvRuZ6up6udvLau-42" value="" style="edgeStyle=orthogonalEdgeStyle;html=1;verticalAlign=bottom;endArrow=open;endSize=8;strokeColor=#ff0000;rounded=0;entryX=0.5;entryY=0;entryDx=0;entryDy=0;" edge="1" source="BAze2DvRuZ6up6udvLau-41" parent="1" target="BAze2DvRuZ6up6udvLau-43">
          <mxGeometry relative="1" as="geometry">
            <mxPoint x="540" y="760" as="targetPoint" />
          </mxGeometry>
        </mxCell>
        <mxCell id="BAze2DvRuZ6up6udvLau-43" value="Ingresar Datos de la Ubicación" style="rounded=1;whiteSpace=wrap;html=1;arcSize=40;fontColor=#000000;fillColor=#ffffc0;strokeColor=#ff0000;" vertex="1" parent="1">
          <mxGeometry x="100" y="960" width="120" height="40" as="geometry" />
        </mxCell>
        <mxCell id="BAze2DvRuZ6up6udvLau-44" value="" style="edgeStyle=orthogonalEdgeStyle;html=1;verticalAlign=bottom;endArrow=open;endSize=8;strokeColor=#ff0000;rounded=0;" edge="1" source="BAze2DvRuZ6up6udvLau-43" parent="1">
          <mxGeometry relative="1" as="geometry">
            <mxPoint x="160" y="1050" as="targetPoint" />
          </mxGeometry>
        </mxCell>
        <mxCell id="BAze2DvRuZ6up6udvLau-46" value="Seleccionar Tipo de Procedimiento" style="rounded=1;whiteSpace=wrap;html=1;arcSize=40;fontColor=#000000;fillColor=#ffffc0;strokeColor=#ff0000;" vertex="1" parent="1">
          <mxGeometry x="100" y="1050" width="120" height="40" as="geometry" />
        </mxCell>
        <mxCell id="BAze2DvRuZ6up6udvLau-47" value="" style="edgeStyle=orthogonalEdgeStyle;html=1;verticalAlign=bottom;endArrow=open;endSize=8;strokeColor=#ff0000;rounded=0;" edge="1" source="BAze2DvRuZ6up6udvLau-46" parent="1">
          <mxGeometry relative="1" as="geometry">
            <mxPoint x="160" y="1160" as="targetPoint" />
          </mxGeometry>
        </mxCell>
        <mxCell id="BAze2DvRuZ6up6udvLau-48" value="Ingresar Detalles del Procedimiento" style="rounded=1;whiteSpace=wrap;html=1;arcSize=40;fontColor=#000000;fillColor=#ffffc0;strokeColor=#ff0000;" vertex="1" parent="1">
          <mxGeometry x="100" y="1160" width="120" height="40" as="geometry" />
        </mxCell>
        <mxCell id="BAze2DvRuZ6up6udvLau-49" value="" style="edgeStyle=orthogonalEdgeStyle;html=1;verticalAlign=bottom;endArrow=open;endSize=8;strokeColor=#ff0000;rounded=0;" edge="1" source="BAze2DvRuZ6up6udvLau-48" parent="1">
          <mxGeometry relative="1" as="geometry">
            <mxPoint x="160" y="1260" as="targetPoint" />
          </mxGeometry>
        </mxCell>
        <mxCell id="BAze2DvRuZ6up6udvLau-52" value="Cargar a la Base de Datos" style="rounded=1;whiteSpace=wrap;html=1;arcSize=40;fontColor=#000000;fillColor=#ffffc0;strokeColor=#ff0000;" vertex="1" parent="1">
          <mxGeometry x="100" y="1360" width="120" height="40" as="geometry" />
        </mxCell>
        <mxCell id="BAze2DvRuZ6up6udvLau-53" value="" style="edgeStyle=orthogonalEdgeStyle;html=1;verticalAlign=bottom;endArrow=open;endSize=8;strokeColor=#ff0000;rounded=0;" edge="1" source="BAze2DvRuZ6up6udvLau-52" parent="1">
          <mxGeometry relative="1" as="geometry">
            <mxPoint x="160" y="1460" as="targetPoint" />
          </mxGeometry>
        </mxCell>
        <mxCell id="BAze2DvRuZ6up6udvLau-54" value="Devolver al Dashboard" style="rounded=1;whiteSpace=wrap;html=1;arcSize=40;fontColor=#000000;fillColor=#ffffc0;strokeColor=#ff0000;" vertex="1" parent="1">
          <mxGeometry x="100" y="1460" width="120" height="40" as="geometry" />
        </mxCell>
        <mxCell id="BAze2DvRuZ6up6udvLau-56" value="Validar Datos" style="rhombus;whiteSpace=wrap;html=1;fontColor=#000000;fillColor=#ffffc0;strokeColor=#ff0000;" vertex="1" parent="1">
          <mxGeometry x="115" y="1260" width="90" height="60" as="geometry" />
        </mxCell>
        <mxCell id="BAze2DvRuZ6up6udvLau-57" value="no" style="edgeStyle=orthogonalEdgeStyle;html=1;align=left;verticalAlign=bottom;endArrow=open;endSize=8;strokeColor=#ff0000;rounded=0;entryX=1;entryY=0.5;entryDx=0;entryDy=0;" edge="1" source="BAze2DvRuZ6up6udvLau-56" parent="1" target="BAze2DvRuZ6up6udvLau-39">
          <mxGeometry x="-1" relative="1" as="geometry">
            <mxPoint x="300" y="1290" as="targetPoint" />
            <Array as="points">
              <mxPoint x="300" y="1290" />
              <mxPoint x="300" y="780" />
            </Array>
          </mxGeometry>
        </mxCell>
        <mxCell id="BAze2DvRuZ6up6udvLau-58" value="yes" style="edgeStyle=orthogonalEdgeStyle;html=1;align=left;verticalAlign=top;endArrow=open;endSize=8;strokeColor=#ff0000;rounded=0;entryX=0.5;entryY=0;entryDx=0;entryDy=0;" edge="1" source="BAze2DvRuZ6up6udvLau-56" parent="1" target="BAze2DvRuZ6up6udvLau-52">
          <mxGeometry x="-1" relative="1" as="geometry">
            <mxPoint x="180" y="1390" as="targetPoint" />
          </mxGeometry>
        </mxCell>
        <mxCell id="BAze2DvRuZ6up6udvLau-61" value="" style="edgeStyle=orthogonalEdgeStyle;html=1;verticalAlign=bottom;endArrow=open;endSize=8;strokeColor=#ff0000;rounded=0;exitX=1;exitY=0.75;exitDx=0;exitDy=0;entryX=0;entryY=0.5;entryDx=0;entryDy=0;" edge="1" source="BAze2DvRuZ6up6udvLau-30" parent="1" target="BAze2DvRuZ6up6udvLau-62">
          <mxGeometry relative="1" as="geometry">
            <mxPoint x="380" y="560" as="targetPoint" />
          </mxGeometry>
        </mxCell>
        <mxCell id="BAze2DvRuZ6up6udvLau-62" value="Seleccionar Divisiones" style="rounded=1;whiteSpace=wrap;html=1;arcSize=40;fontColor=#000000;fillColor=#ffffc0;strokeColor=#ff0000;" vertex="1" parent="1">
          <mxGeometry x="490" y="540" width="120" height="40" as="geometry" />
        </mxCell>
        <mxCell id="BAze2DvRuZ6up6udvLau-63" value="" style="edgeStyle=orthogonalEdgeStyle;html=1;verticalAlign=bottom;endArrow=open;endSize=8;strokeColor=#ff0000;rounded=0;" edge="1" source="BAze2DvRuZ6up6udvLau-62" parent="1">
          <mxGeometry relative="1" as="geometry">
            <mxPoint x="550" y="640" as="targetPoint" />
          </mxGeometry>
        </mxCell>
        <mxCell id="BAze2DvRuZ6up6udvLau-64" value="Despliega el Menu" style="rounded=1;whiteSpace=wrap;html=1;arcSize=40;fontColor=#000000;fillColor=#ffffc0;strokeColor=#ff0000;" vertex="1" parent="1">
          <mxGeometry x="490" y="640" width="120" height="40" as="geometry" />
        </mxCell>
        <mxCell id="BAze2DvRuZ6up6udvLau-65" value="" style="edgeStyle=orthogonalEdgeStyle;html=1;verticalAlign=bottom;endArrow=open;endSize=8;strokeColor=#ff0000;rounded=0;" edge="1" source="BAze2DvRuZ6up6udvLau-64" parent="1">
          <mxGeometry relative="1" as="geometry">
            <mxPoint x="550" y="740" as="targetPoint" />
          </mxGeometry>
        </mxCell>
        <mxCell id="BAze2DvRuZ6up6udvLau-66" value="Menu" style="swimlane;fontStyle=1;align=center;verticalAlign=middle;childLayout=stackLayout;horizontal=1;startSize=30;horizontalStack=0;resizeParent=0;resizeLast=1;container=0;fontColor=#000000;collapsible=0;rounded=1;arcSize=30;strokeColor=#ff0000;fillColor=#ffffc0;swimlaneFillColor=#ffffc0;dropTarget=0;" vertex="1" parent="1">
          <mxGeometry x="470" y="740" width="160" height="180" as="geometry" />
        </mxCell>
        <mxCell id="BAze2DvRuZ6up6udvLau-67" value="- Operaciones&lt;div&gt;- Rescate&lt;/div&gt;&lt;div&gt;- GRUMAE&lt;/div&gt;&lt;div&gt;- Prehospitalaria&lt;/div&gt;&lt;div&gt;- Prevención&lt;/div&gt;&lt;div&gt;- Servicios Médicos&lt;/div&gt;&lt;div&gt;- Enfermería&lt;/div&gt;&lt;div&gt;- Psicología&amp;nbsp;&lt;/div&gt;&lt;div&gt;&lt;span style=&quot;background-color: initial;&quot;&gt;- Capacitación&lt;/span&gt;&lt;/div&gt;" style="text;html=1;strokeColor=none;fillColor=none;align=left;verticalAlign=middle;spacingLeft=4;spacingRight=4;whiteSpace=wrap;overflow=hidden;rotatable=0;fontColor=#000000;" vertex="1" parent="BAze2DvRuZ6up6udvLau-66">
          <mxGeometry y="30" width="160" height="150" as="geometry" />
        </mxCell>
        <mxCell id="BAze2DvRuZ6up6udvLau-68" value="" style="edgeStyle=orthogonalEdgeStyle;html=1;verticalAlign=bottom;endArrow=open;endSize=8;strokeColor=#ff0000;rounded=0;" edge="1" source="BAze2DvRuZ6up6udvLau-66" parent="1">
          <mxGeometry relative="1" as="geometry">
            <mxPoint x="550" y="990" as="targetPoint" />
          </mxGeometry>
        </mxCell>
        <mxCell id="BAze2DvRuZ6up6udvLau-69" value="Selecciona Division" style="rounded=1;whiteSpace=wrap;html=1;arcSize=40;fontColor=#000000;fillColor=#ffffc0;strokeColor=#ff0000;" vertex="1" parent="1">
          <mxGeometry x="490" y="990" width="120" height="40" as="geometry" />
        </mxCell>
        <mxCell id="BAze2DvRuZ6up6udvLau-70" value="" style="edgeStyle=orthogonalEdgeStyle;html=1;verticalAlign=bottom;endArrow=open;endSize=8;strokeColor=#ff0000;rounded=0;" edge="1" source="BAze2DvRuZ6up6udvLau-69" parent="1">
          <mxGeometry relative="1" as="geometry">
            <mxPoint x="550" y="1100" as="targetPoint" />
          </mxGeometry>
        </mxCell>
        <mxCell id="BAze2DvRuZ6up6udvLau-71" value="Despliega Listado Procedimientos" style="rounded=1;whiteSpace=wrap;html=1;arcSize=40;fontColor=#000000;fillColor=#ffffc0;strokeColor=#ff0000;" vertex="1" parent="1">
          <mxGeometry x="485" y="1100" width="130" height="60" as="geometry" />
        </mxCell>
        <mxCell id="BAze2DvRuZ6up6udvLau-72" value="" style="edgeStyle=orthogonalEdgeStyle;html=1;verticalAlign=bottom;endArrow=open;endSize=8;strokeColor=#ff0000;rounded=0;" edge="1" source="BAze2DvRuZ6up6udvLau-71" parent="1">
          <mxGeometry relative="1" as="geometry">
            <mxPoint x="550" y="1200" as="targetPoint" />
          </mxGeometry>
        </mxCell>
        <mxCell id="BAze2DvRuZ6up6udvLau-75" value="Acciones" style="swimlane;fontStyle=1;align=center;verticalAlign=middle;childLayout=stackLayout;horizontal=1;startSize=30;horizontalStack=0;resizeParent=0;resizeLast=1;container=0;fontColor=#000000;collapsible=0;rounded=1;arcSize=30;strokeColor=#ff0000;fillColor=#ffffc0;swimlaneFillColor=#ffffc0;dropTarget=0;" vertex="1" parent="1">
          <mxGeometry x="470" y="1200" width="160" height="130" as="geometry" />
        </mxCell>
        <mxCell id="BAze2DvRuZ6up6udvLau-76" value="- Ver&lt;div&gt;- Modificar&lt;/div&gt;&lt;div&gt;- Eliminar&lt;/div&gt;&lt;div&gt;- Filtrar&lt;/div&gt;&lt;div&gt;- Exportar Documento (PDF y EXEL)&lt;/div&gt;" style="text;html=1;strokeColor=none;fillColor=none;align=left;verticalAlign=middle;spacingLeft=4;spacingRight=4;whiteSpace=wrap;overflow=hidden;rotatable=0;fontColor=#000000;" vertex="1" parent="BAze2DvRuZ6up6udvLau-75">
          <mxGeometry y="30" width="160" height="100" as="geometry" />
        </mxCell>
        <mxCell id="BAze2DvRuZ6up6udvLau-77" value="" style="edgeStyle=orthogonalEdgeStyle;html=1;verticalAlign=bottom;endArrow=open;endSize=8;strokeColor=#ff0000;rounded=0;exitX=0.5;exitY=1;exitDx=0;exitDy=0;entryX=0.5;entryY=0;entryDx=0;entryDy=0;" edge="1" source="BAze2DvRuZ6up6udvLau-76" parent="1" target="BAze2DvRuZ6up6udvLau-78">
          <mxGeometry relative="1" as="geometry">
            <mxPoint x="550" y="1370" as="targetPoint" />
            <mxPoint x="550" y="1320" as="sourcePoint" />
          </mxGeometry>
        </mxCell>
        <mxCell id="BAze2DvRuZ6up6udvLau-78" value="Seleccionar Un Procedimiento" style="rounded=1;whiteSpace=wrap;html=1;arcSize=40;fontColor=#000000;fillColor=#ffffc0;strokeColor=#ff0000;" vertex="1" parent="1">
          <mxGeometry x="490" y="1380" width="120" height="40" as="geometry" />
        </mxCell>
        <mxCell id="BAze2DvRuZ6up6udvLau-79" value="" style="edgeStyle=orthogonalEdgeStyle;html=1;verticalAlign=bottom;endArrow=open;endSize=8;strokeColor=#ff0000;rounded=0;" edge="1" source="BAze2DvRuZ6up6udvLau-78" parent="1">
          <mxGeometry relative="1" as="geometry">
            <mxPoint x="550" y="1470" as="targetPoint" />
          </mxGeometry>
        </mxCell>
        <mxCell id="BAze2DvRuZ6up6udvLau-80" value="Mostrar Informacion Detallada del Procedimiento" style="rounded=1;whiteSpace=wrap;html=1;arcSize=40;fontColor=#000000;fillColor=#ffffc0;strokeColor=#ff0000;" vertex="1" parent="1">
          <mxGeometry x="490" y="1470" width="120" height="70" as="geometry" />
        </mxCell>
        <mxCell id="BAze2DvRuZ6up6udvLau-81" value="" style="edgeStyle=orthogonalEdgeStyle;html=1;verticalAlign=bottom;endArrow=open;endSize=8;strokeColor=#ff0000;rounded=0;" edge="1" source="BAze2DvRuZ6up6udvLau-80" parent="1">
          <mxGeometry relative="1" as="geometry">
            <mxPoint x="550" y="1630" as="targetPoint" />
          </mxGeometry>
        </mxCell>
        <mxCell id="BAze2DvRuZ6up6udvLau-82" value="Volver al Dashboard" style="rounded=1;whiteSpace=wrap;html=1;arcSize=40;fontColor=#000000;fillColor=#ffffc0;strokeColor=#ff0000;" vertex="1" parent="1">
          <mxGeometry x="490" y="1630" width="120" height="40" as="geometry" />
        </mxCell>
        <mxCell id="BAze2DvRuZ6up6udvLau-83" value="" style="edgeStyle=orthogonalEdgeStyle;html=1;verticalAlign=bottom;endArrow=open;endSize=8;strokeColor=#ff0000;rounded=0;entryX=1;entryY=0.5;entryDx=0;entryDy=0;" edge="1" source="BAze2DvRuZ6up6udvLau-82" parent="1" target="BAze2DvRuZ6up6udvLau-30">
          <mxGeometry relative="1" as="geometry">
            <mxPoint x="550" y="1730" as="targetPoint" />
          </mxGeometry>
        </mxCell>
        <mxCell id="BAze2DvRuZ6up6udvLau-84" value="Seleccionar Estadisticas" style="rounded=1;whiteSpace=wrap;html=1;arcSize=40;fontColor=#000000;fillColor=#ffffc0;strokeColor=#ff0000;" vertex="1" parent="1">
          <mxGeometry x="-240" y="500" width="120" height="40" as="geometry" />
        </mxCell>
        <mxCell id="BAze2DvRuZ6up6udvLau-85" value="" style="edgeStyle=orthogonalEdgeStyle;html=1;verticalAlign=bottom;endArrow=open;endSize=8;strokeColor=#ff0000;rounded=0;exitX=0;exitY=0.25;exitDx=0;exitDy=0;" edge="1" source="BAze2DvRuZ6up6udvLau-30" parent="1">
          <mxGeometry relative="1" as="geometry">
            <mxPoint x="-120" y="520" as="targetPoint" />
          </mxGeometry>
        </mxCell>
        <mxCell id="BAze2DvRuZ6up6udvLau-87" value="" style="edgeStyle=orthogonalEdgeStyle;html=1;verticalAlign=bottom;endArrow=open;endSize=8;strokeColor=#ff0000;rounded=0;exitX=0.5;exitY=1;exitDx=0;exitDy=0;" edge="1" source="BAze2DvRuZ6up6udvLau-84" parent="1">
          <mxGeometry relative="1" as="geometry">
            <mxPoint x="-180" y="620" as="targetPoint" />
          </mxGeometry>
        </mxCell>
        <mxCell id="BAze2DvRuZ6up6udvLau-88" value="Visualizar Gráficos e Información" style="rounded=1;whiteSpace=wrap;html=1;arcSize=40;fontColor=#000000;fillColor=#ffffc0;strokeColor=#ff0000;" vertex="1" parent="1">
          <mxGeometry x="-250" y="620" width="140" height="60" as="geometry" />
        </mxCell>
        <mxCell id="BAze2DvRuZ6up6udvLau-89" value="" style="edgeStyle=orthogonalEdgeStyle;html=1;verticalAlign=bottom;endArrow=open;endSize=8;strokeColor=#ff0000;rounded=0;entryX=0.5;entryY=0;entryDx=0;entryDy=0;" edge="1" source="BAze2DvRuZ6up6udvLau-88" parent="1" target="BAze2DvRuZ6up6udvLau-90">
          <mxGeometry relative="1" as="geometry">
            <mxPoint x="-180" y="720" as="targetPoint" />
          </mxGeometry>
        </mxCell>
        <mxCell id="BAze2DvRuZ6up6udvLau-90" value="Acciones" style="swimlane;fontStyle=1;align=center;verticalAlign=middle;childLayout=stackLayout;horizontal=1;startSize=30;horizontalStack=0;resizeParent=0;resizeLast=1;container=0;fontColor=#000000;collapsible=0;rounded=1;arcSize=30;strokeColor=#ff0000;fillColor=#ffffc0;swimlaneFillColor=#ffffc0;dropTarget=0;" vertex="1" parent="1">
          <mxGeometry x="-265" y="730" width="170" height="110" as="geometry" />
        </mxCell>
        <mxCell id="BAze2DvRuZ6up6udvLau-91" value="- Crear&lt;div&gt;- Detallar&lt;/div&gt;&lt;div&gt;- Exportar en Documento (PDF y EXCEL)&lt;/div&gt;" style="text;html=1;strokeColor=none;fillColor=none;align=left;verticalAlign=middle;spacingLeft=4;spacingRight=4;whiteSpace=wrap;overflow=hidden;rotatable=0;fontColor=#000000;perimeterSpacing=0;" vertex="1" parent="BAze2DvRuZ6up6udvLau-90">
          <mxGeometry y="30" width="170" height="80" as="geometry" />
        </mxCell>
        <mxCell id="BAze2DvRuZ6up6udvLau-92" value="" style="edgeStyle=orthogonalEdgeStyle;html=1;verticalAlign=bottom;endArrow=open;endSize=8;strokeColor=#ff0000;rounded=0;" edge="1" source="BAze2DvRuZ6up6udvLau-90" parent="1">
          <mxGeometry relative="1" as="geometry">
            <mxPoint x="-180" y="910" as="targetPoint" />
          </mxGeometry>
        </mxCell>
        <mxCell id="BAze2DvRuZ6up6udvLau-93" value="Volver al Dashboard" style="rounded=1;whiteSpace=wrap;html=1;arcSize=40;fontColor=#000000;fillColor=#ffffc0;strokeColor=#ff0000;" vertex="1" parent="1">
          <mxGeometry x="-240" y="910" width="120" height="40" as="geometry" />
        </mxCell>
        <mxCell id="BAze2DvRuZ6up6udvLau-94" value="" style="edgeStyle=orthogonalEdgeStyle;html=1;verticalAlign=bottom;endArrow=open;endSize=8;strokeColor=#ff0000;rounded=0;entryX=0;entryY=0.75;entryDx=0;entryDy=0;" edge="1" source="BAze2DvRuZ6up6udvLau-93" parent="1" target="BAze2DvRuZ6up6udvLau-30">
          <mxGeometry relative="1" as="geometry">
            <mxPoint x="-180" y="1010" as="targetPoint" />
          </mxGeometry>
        </mxCell>
        <mxCell id="BAze2DvRuZ6up6udvLau-96" value="" style="edgeStyle=orthogonalEdgeStyle;html=1;verticalAlign=bottom;endArrow=open;endSize=8;strokeColor=#ff0000;rounded=0;exitX=0.5;exitY=1;exitDx=0;exitDy=0;entryX=0;entryY=0.5;entryDx=0;entryDy=0;" edge="1" source="BAze2DvRuZ6up6udvLau-54" parent="1" target="BAze2DvRuZ6up6udvLau-30">
          <mxGeometry relative="1" as="geometry">
            <mxPoint x="40" y="1520" as="targetPoint" />
            <Array as="points">
              <mxPoint x="160" y="1510" />
              <mxPoint x="40" y="1510" />
              <mxPoint x="40" y="540" />
            </Array>
          </mxGeometry>
        </mxCell>
        <mxCell id="BAze2DvRuZ6up6udvLau-100" value="" style="edgeStyle=orthogonalEdgeStyle;html=1;verticalAlign=bottom;endArrow=open;endSize=8;strokeColor=#ff0000;rounded=0;exitX=0.5;exitY=0;exitDx=0;exitDy=0;entryX=0.5;entryY=1;entryDx=0;entryDy=0;" edge="1" source="BAze2DvRuZ6up6udvLau-99" parent="1" target="BAze2DvRuZ6up6udvLau-102">
          <mxGeometry relative="1" as="geometry">
            <mxPoint x="1240" y="-46.61527193509616" as="targetPoint" />
            <Array as="points">
              <mxPoint x="740" y="490" />
              <mxPoint x="745" y="490" />
            </Array>
          </mxGeometry>
        </mxCell>
        <mxCell id="BAze2DvRuZ6up6udvLau-101" value="" style="edgeStyle=orthogonalEdgeStyle;html=1;verticalAlign=bottom;endArrow=open;endSize=8;strokeColor=#ff0000;rounded=0;exitX=1;exitY=0;exitDx=0;exitDy=0;entryX=0;entryY=0.5;entryDx=0;entryDy=0;" edge="1" parent="1" source="BAze2DvRuZ6up6udvLau-30" target="BAze2DvRuZ6up6udvLau-99">
          <mxGeometry relative="1" as="geometry">
            <mxPoint x="840" y="490" as="targetPoint" />
            <mxPoint x="240" y="500" as="sourcePoint" />
            <Array as="points" />
          </mxGeometry>
        </mxCell>
        <mxCell id="BAze2DvRuZ6up6udvLau-99" value="Cerrar Sesion" style="rounded=1;whiteSpace=wrap;html=1;arcSize=40;fontColor=#000000;fillColor=#ffffc0;strokeColor=#ff0000;" vertex="1" parent="1">
          <mxGeometry x="680" y="470" width="120" height="40" as="geometry" />
        </mxCell>
        <mxCell id="BAze2DvRuZ6up6udvLau-102" value="" style="ellipse;html=1;shape=endState;fillColor=#000000;strokeColor=#ff0000;" vertex="1" parent="1">
          <mxGeometry x="730" y="200" width="30" height="30" as="geometry" />
        </mxCell>
        <mxCell id="BAze2DvRuZ6up6udvLau-105" value="" style="edgeStyle=orthogonalEdgeStyle;html=1;verticalAlign=bottom;endArrow=open;endSize=8;strokeColor=#ff0000;rounded=0;exitX=0.5;exitY=0;exitDx=0;exitDy=0;entryX=1;entryY=0.5;entryDx=0;entryDy=0;" edge="1" source="BAze2DvRuZ6up6udvLau-102" parent="1" target="BAze2DvRuZ6up6udvLau-10">
          <mxGeometry relative="1" as="geometry">
            <mxPoint x="1200" y="400" as="targetPoint" />
          </mxGeometry>
        </mxCell>
      </root>
    </mxGraphModel>
  </diagram>
</mxfile>
